<?xml version="1.0" encoding="UTF-8"?>
<svg width="36px" height="36px" viewBox="0 0 36 36" version="1.1" xmlns="http://www.w3.org/2000/svg"
>
    <!-- Generator: Sketch 62 (91390) - https://sketch.com -->
    <title>vps</title>
    <desc>Created with Sketch.</desc>
    <g id="vps" stroke="none" stroke-width="1" fill="none" fill-rule="evenodd">
        <path d="M33,26 L33,31 C33,32.6568542 31.6568542,34 30,34 L6,34 C4.34314575,34 3,32.6568542 3,31 L3,26 L33,26 Z M30,29 L6,29 L6,31 L30,31 L30,29 Z M33,15 L33,23 L3,23 L3,15 L33,15 Z M30,18 L6,18 L6,20 L30,20 L30,18 Z M30,4 C31.6568542,4 33,5.34314575 33,7 L33,12 L3,12 L3,7 C3,5.34314575 4.34314575,4 6,4 L30,4 Z M30,7 L6,7 L6,9 L30,9 L30,7 Z"
              fill="#991b1b"></path>
    </g>
</svg>
